<?xml version="1.0" encoding="UTF-8" standalone="no"?>
<!-- filename: biology3_immune_response.svg -->

<svg
   width="920"
   height="320"
   viewBox="0 0 920 320"
   version="1.1"
   id="svg70"
   sodipodi:docname="biology3_immune_response.svg"
   inkscape:version="1.2.2 (b0a8486541, 2022-12-01)"
   xmlns:inkscape="http://www.inkscape.org/namespaces/inkscape"
   xmlns:sodipodi="http://sodipodi.sourceforge.net/DTD/sodipodi-0.dtd"
   xmlns="http://www.w3.org/2000/svg"
   xmlns:svg="http://www.w3.org/2000/svg">
  <defs
     id="defs74" />
  <sodipodi:namedview
     id="namedview72"
     pagecolor="#ffffff"
     bordercolor="#000000"
     borderopacity="0.25"
     inkscape:showpageshadow="2"
     inkscape:pageopacity="0.0"
     inkscape:pagecheckerboard="0"
     inkscape:deskcolor="#d1d1d1"
     showgrid="false"
     inkscape:zoom="1.4065217"
     inkscape:cx="460"
     inkscape:cy="159.96909"
     inkscape:window-width="2560"
     inkscape:window-height="1374"
     inkscape:window-x="2560"
     inkscape:window-y="0"
     inkscape:window-maximized="1"
     inkscape:current-layer="svg70" />
  <style
     id="style2">
    .title { font: bold 24px Arial, sans-serif; fill: #111; }
    .label { font: 17px Arial, sans-serif; fill: #111; }
    .small { font: 14px Arial, sans-serif; fill: #333; }
    .line { stroke: #111; stroke-width: 2.5; fill: none; }
    .thin { stroke: #111; stroke-width: 2; fill: none; }
    .dot { fill: #111; }
  </style>
  <text
     x="460"
     y="32"
     text-anchor="middle"
     class="title"
     id="text4">Immune response</text>
  <!-- Panel 1 -->
  <rect
     x="30"
     y="60"
     width="260"
     height="220"
     rx="12"
     ry="12"
     class="line"
     id="rect6" />
  <text
     x="160"
     y="88"
     text-anchor="middle"
     class="label"
     id="text8">1. Phagocytosis</text>
  <circle
     cx="120"
     cy="170"
     r="42"
     class="line"
     id="circle10" />
  <circle
     cx="165"
     cy="170"
     r="16"
     class="line"
     id="circle12" />
  <line
     x1="136"
     y1="170"
     x2="149"
     y2="170"
     class="thin"
     id="line14" />
  <text
     x="72"
     y="235"
     class="small"
     id="text16">White blood cell</text>
  <text
     x="161"
     y="205"
     class="small"
     id="text18"
     style="font-style:normal;font-variant:normal;font-weight:normal;font-stretch:normal;font-size:14px;line-height:normal;font-family:Arial, sans-serif">Pathogen</text>
  <text
     x="62"
     y="255"
     class="small"
     id="text20">Engulfs invading pathogen</text>
  <!-- Panel 2 -->
  <rect
     x="330"
     y="60"
     width="260"
     height="220"
     rx="12"
     ry="12"
     class="line"
     id="rect22" />
  <text
     x="460"
     y="88"
     text-anchor="middle"
     class="label"
     id="text24">2. Antibodies</text>
  <circle
     cx="455"
     cy="170"
     r="20"
     class="line"
     id="circle26" />
  <circle
     cx="420"
     cy="145"
     r="10"
     class="line"
     id="circle28" />
  <circle
     cx="495"
     cy="145"
     r="10"
     class="line"
     id="circle30" />
  <circle
     cx="420"
     cy="195"
     r="10"
     class="line"
     id="circle32" />
  <circle
     cx="495"
     cy="195"
     r="10"
     class="line"
     id="circle34" />
  <!-- antibody Y shapes -->
  <path
     d="M390 120 L400 135 L410 120 M400 135 L400 150"
     class="thin"
     id="path36" />
  <path
     d="M520 120 L530 135 L540 120 M530 135 L530 150"
     class="thin"
     id="path38" />
  <path
     d="M390 220 L400 205 L410 220 M400 205 L400 190"
     class="thin"
     id="path40" />
  <path
     d="M520 220 L530 205 L540 220 M530 205 L530 190"
     class="thin"
     id="path42" />
  <text
     x="395"
     y="255"
     class="small"
     id="text44">Antibodies attach to</text>
  <text
     x="405"
     y="273"
     class="small"
     id="text46">matching pathogen</text>
  <!-- Panel 3 -->
  <rect
     x="630"
     y="60"
     width="260"
     height="220"
     rx="12"
     ry="12"
     class="line"
     id="rect48" />
  <text
     x="760"
     y="88"
     text-anchor="middle"
     class="label"
     id="text50">3. Antitoxins</text>
  <circle
     cx="700"
     cy="170"
     r="18"
     class="line"
     id="circle52" />
  <circle
     cx="760"
     cy="150"
     r="8"
     class="dot"
     id="circle54" />
  <circle
     cx="790"
     cy="170"
     r="8"
     class="dot"
     id="circle56" />
  <circle
     cx="760"
     cy="190"
     r="8"
     class="dot"
     id="circle58" />
  <path
     d="M720 145 Q735 135 748 145"
     class="thin"
     id="path60" />
  <path
     d="M720 170 Q745 170 782 170"
     class="thin"
     id="path62" />
  <path
     d="M720 195 Q735 205 748 195"
     class="thin"
     id="path64" />
  <text
     x="684"
     y="235"
     class="small"
     id="text66">Toxins released by pathogen</text>
  <text
     x="676"
     y="255"
     class="small"
     id="text68">are neutralised by antitoxins</text>
</svg>
