<svg width="900" height="420" viewBox="0 0 900 420" xmlns="http://www.w3.org/2000/svg">
  <defs>
    <style>
      .title { font: bold 28px Arial, sans-serif; fill: #111; }
      .label { font: 20px Arial, sans-serif; fill: #111; }
      .small { font: 16px Arial, sans-serif; fill: #111; }
      .wire { stroke: #111; stroke-width: 4; fill: none; }
      .device { stroke: #111; stroke-width: 3; fill: #f8f8f8; rx: 10; ry: 10; }
      .good { fill: #0a7a0a; font: bold 18px Arial, sans-serif; }
      .bad { fill: #b00020; font: bold 18px Arial, sans-serif; }
    </style>
  </defs>

  <text x="450" y="40" text-anchor="middle" class="title">Series Circuit</text>

  <!-- Battery -->
  <line x1="120" y1="160" x2="120" y2="260" class="wire"/>
  <line x1="145" y1="150" x2="145" y2="270" class="wire"/>
  <text x="95" y="140" class="label">Battery</text>

  <!-- Top wire -->
  <line x1="145" y1="150" x2="300" y2="150" class="wire"/>

  <!-- Device 1 -->
  <rect x="300" y="125" width="140" height="50" class="device"/>
  <text x="370" y="155" text-anchor="middle" class="label">Lamp 1</text>

  <!-- Wire between -->
  <line x1="440" y1="150" x2="560" y2="150" class="wire"/>

  <!-- Device 2 -->
  <rect x="560" y="125" width="140" height="50" class="device"/>
  <text x="630" y="155" text-anchor="middle" class="label">Lamp 2</text>

  <!-- Wire to right side -->
  <line x1="700" y1="150" x2="780" y2="150" class="wire"/>

  <!-- Right vertical -->
  <line x1="780" y1="150" x2="780" y2="300" class="wire"/>

  <!-- Bottom wire -->
  <line x1="780" y1="300" x2="120" y2="300" class="wire"/>

  <!-- Back to battery -->
  <line x1="120" y1="300" x2="120" y2="260" class="wire"/>

  <!-- Notes -->
  <text x="260" y="90" class="good">One loop</text>
  <text x="520" y="90" class="good">Voltage shared</text>

  <!-- Break indicator -->
  <line x1="600" y1="120" x2="640" y2="180" stroke="#b00020" stroke-width="4"/>
  <line x1="640" y1="120" x2="600" y2="180" stroke="#b00020" stroke-width="4"/>
  <text x="580" y="210" class="bad">Break anywhere → whole circuit stops</text>

</svg>